<?xml version="1.0" encoding="utf-8"?>
<!-- Generator: Adobe Illustrator 18.1.1, SVG Export Plug-In . SVG Version: 6.00 Build 0)  -->
<svg version="1.1" id="Calque_1" xmlns:sketch="http://www.bohemiancoding.com/sketch/ns"
	 xmlns="http://www.w3.org/2000/svg" xmlns:xlink="http://www.w3.org/1999/xlink" x="0px" y="0px" viewBox="-488 241 22 19"
	 enable-background="new -488 241 22 19" xml:space="preserve">
<title></title>
<g id="miu">
	<path id="food_birthday-cake_party_candle_glyph" fill="#D8D8D8" d="M-486.9,252.9c0.6,0.4,1.3,0.8,2,0.8c1.4,0,2.2-1.7,3.7-1.7
		c1.5,0,2.5,1.7,3.9,1.7c1.4,0,2.6-1.7,3.9-1.7c1.4,0,2.6,1.7,3.9,1.7c0.7,0,1.6-0.5,2.3-0.9V250c0-1-0.6-1-0.6-1h-18.6
		c0,0-0.6,0-0.6,1V252.9z M-488,252.5v5.2c0,2.3,2.3,2.3,2.3,2.3h17.5c0,0,2.3,0,2.3-2.3v-5.2V250c0-2-1.7-2-1.7-2h-18.6
		c0,0-1.7,0-1.7,2V252.5z M-483,243.5v4h1v-4H-483L-483,243.5z M-477.5,243.5v4h1v-4H-477.5L-477.5,243.5z M-472,243.5v4h1v-4H-472
		L-472,243.5z M-482.5,243c0.5,0,0.8-0.5,0-1.5C-483.3,242.5-483,243-482.5,243L-482.5,243z M-477,243c0.5,0,0.8-0.5,0-1.5
		C-477.8,242.5-477.5,243-477,243L-477,243z M-471.5,243c0.5,0,0.8-0.5,0-1.5C-472.3,242.5-472,243-471.5,243L-471.5,243z"/>
</g>
</svg>
