<?xml version="1.0" encoding="utf-8"?>
<!-- Generator: Adobe Illustrator 18.1.1, SVG Export Plug-In . SVG Version: 6.00 Build 0)  -->
<svg version="1.1" id="Livello_1" xmlns="http://www.w3.org/2000/svg" xmlns:xlink="http://www.w3.org/1999/xlink" x="0px" y="0px"
	 viewBox="-449 201 100 100" enable-background="new -449 201 100 100" xml:space="preserve">
<path fill="#D8D8D8" d="M-399,201c-18.7,0-33.9,15.2-33.9,33.9c0,0.4,0,0.8,0,1.2c0.1,3.6,0.8,7,1.9,10.2
	C-423.7,270-399,301-399,301s24.7-31,31.9-54.7c1.1-3.2,1.8-6.6,1.9-10.2c0-0.4,0-0.8,0-1.2C-365.1,216.2-380.3,201-399,201z
	 M-399,251.5c-9.2,0-16.6-7.4-16.6-16.6c0-9.2,7.4-16.6,16.6-16.6c9.2,0,16.6,7.4,16.6,16.6C-382.4,244-389.8,251.5-399,251.5z"/>
</svg>
