<?xml version="1.0" encoding="utf-8"?>
<!-- Generator: Adobe Illustrator 18.1.1, SVG Export Plug-In . SVG Version: 6.00 Build 0)  -->
<svg version="1.1" id="Layer_1" xmlns="http://www.w3.org/2000/svg" xmlns:xlink="http://www.w3.org/1999/xlink" x="0px" y="0px"
	 viewBox="19.8 36.9 415 415" enable-background="new 19.8 36.9 415 415" xml:space="preserve">
<g>
	<path fill="#C5BA9E" d="M227.3,434.4c-104.8,0-190-85.2-190-190s85.2-190,190-190s190,85.2,190,190S332,434.4,227.3,434.4z"/>
	<path fill="#FFFFFF" d="M227.3,64.4c48.1,0,93.3,18.7,127.3,52.7s52.7,79.2,52.7,127.3c0,48.1-18.7,93.3-52.7,127.3
		s-79.2,52.7-127.3,52.7S134,405.7,100,371.7s-52.7-79.2-52.7-127.3c0-48.1,18.7-93.3,52.7-127.3S179.2,64.4,227.3,64.4 M227.3,44.4
		c-110.5,0-200,89.5-200,200s89.5,200,200,200s200-89.5,200-200S337.7,44.4,227.3,44.4L227.3,44.4z"/>
</g>
<g>
	<g>
		<g>
			<path fill="#FFFFFF" d="M240.9,188.7c0,24.1-19.4,43.2-43.2,43.2c-23.8,0-43.2-19.4-43.2-43.2s19.4-43.2,43.2-43.2
				S240.9,164.9,240.9,188.7z"/>
			<path fill="#FFFFFF" d="M278.2,324c0,25.7-161.7,25.7-161.7,0c0-38.2,36-67.4,80.8-67.4C242.1,256.7,278.2,285.5,278.2,324z"/>
		</g>
	</g>
	<polygon fill="#FFFFFF" points="338,183.4 312.6,183.4 312.6,157.7 286.9,157.7 286.9,183.4 261.6,183.4 261.6,208.7 286.9,208.7 
		286.9,234.4 312.6,234.4 312.6,208.7 338,208.7 	"/>
</g>
</svg>
