<?xml version="1.0" encoding="utf-8"?>
<!-- Generator: Adobe Illustrator 18.1.1, SVG Export Plug-In . SVG Version: 6.00 Build 0)  -->
<svg version="1.1" id="Calque_1" xmlns="http://www.w3.org/2000/svg" xmlns:xlink="http://www.w3.org/1999/xlink" x="0px" y="0px"
	 viewBox="-428.8 203 60 64.8" enable-background="new -428.8 203 60 64.8" xml:space="preserve">
<g id="Your_Icon">
	<g id="Ellipse_2_copy_3">
		<g>
			<ellipse fill="#D8D8D8" cx="-383" cy="209.4" rx="5.8" ry="5.8"/>
		</g>
	</g>
	<g id="Rounded_Rectangle_17">
		<g>
			<path fill="#D8D8D8" d="M-378.1,222.6l-7.5-6.6c-1-0.9-2.5-0.8-3.4,0.2c-0.9,1-0.8,2.5,0.2,3.4l7.5,6.6c1,0.9,2.5,0.8,3.4-0.2
				C-377,225-377.1,223.5-378.1,222.6z"/>
		</g>
	</g>
	<g id="Rounded_Rectangle_17_copy_2">
		<g>
			<path fill="#D8D8D8" d="M-391,213.8l-10,0.8c-1.3,0.1-2.3,1.3-2.2,2.6c0.1,1.3,1.3,2.3,2.6,2.2l10-0.8c1.3-0.1,2.3-1.3,2.2-2.6
				C-388.5,214.7-389.7,213.7-391,213.8z"/>
		</g>
	</g>
	<g id="Rounded_Rectangle_17_copy">
		<g>
			<path fill="#D8D8D8" d="M-370.4,215.6c-1-0.9-2.5-0.9-3.4,0.1l-6.9,7.1c-0.9,1-0.9,2.5,0.1,3.4c1,0.9,2.5,0.9,3.4-0.1l6.9-7.1
				C-369.4,218-369.4,216.5-370.4,215.6z"/>
		</g>
	</g>
	<g id="Rounded_Rectangle_17_copy_3">
		<g>
			<path fill="#D8D8D8" d="M-400,215.4c-1-0.9-2.5-0.9-3.4,0.1l-6.9,7.1c-0.9,1-0.9,2.5,0.1,3.4c1,0.9,2.5,0.9,3.4-0.1l6.9-7.1
				C-399,217.9-399.1,216.3-400,215.4z"/>
		</g>
	</g>
	<g id="Rounded_Rectangle_14_copy">
		<g>
			<path fill="#D8D8D8" d="M-386.8,215.2l-1-0.6c-2.1-1.2-4.8-0.6-6,1.5l-10.4,17.3c-1.2,2.1-0.6,4.8,1.5,6l1,0.6
				c2.1,1.2,4.8,0.6,6-1.5l10.4-17.3C-384,219.1-384.7,216.4-386.8,215.2z"/>
		</g>
	</g>
	<g id="Rounded_Rectangle_15">
		<g>
			<path fill="#D8D8D8" d="M-387.4,243.1l-8.9-9.1c-1.5-1.5-3.9-1.5-5.4,0c-1.5,1.5-1.5,3.9,0,5.4l8.9,9.1c1.5,1.5,3.9,1.5,5.4,0
				S-386,244.6-387.4,243.1z"/>
		</g>
	</g>
	<g id="Rounded_Rectangle_15_copy">
		<g>
			<path fill="#D8D8D8" d="M-397.8,230.6c-1.8-1.1-4.1-0.7-5.2,1.1l-6.9,10.7c-1.1,1.8-0.6,4.1,1.1,5.3c1.8,1.1,4.1,0.7,5.2-1.1
				l6.9-10.7C-395.6,234.1-396.1,231.7-397.8,230.6z"/>
		</g>
	</g>
	<g id="Rounded_Rectangle_16">
		<g>
			<path fill="#D8D8D8" d="M-389.4,243.1c-1.8-0.3-3.5,1-3.8,3.1l-2.5,16.6c-0.3,2,0.9,4,2.7,4.3c1.8,0.3,3.5-1,3.8-3.1l2.5-16.6
				C-386.4,245.3-387.6,243.4-389.4,243.1z"/>
		</g>
	</g>
	<g id="Rounded_Rectangle_16_copy">
		<g>
			<path fill="#D8D8D8" d="M-407.1,243.1l-16.5-3c-2-0.4-4,0.7-4.4,2.3c-0.4,1.7,0.9,3.3,2.9,3.7l16.5,3c2,0.4,4-0.7,4.4-2.3
				C-403.8,245.2-405.1,243.5-407.1,243.1z"/>
		</g>
	</g>
</g>
</svg>
